<svg width="20" height="20" viewBox="0 0 20 20" fill="none" xmlns="http://www.w3.org/2000/svg">
<path d="M16.6979 5.68373L11.8979 2.3254C10.5896 1.40873 8.58125 1.45873 7.32292 2.43373L3.14792 5.69206C2.31458 6.34206 1.65625 7.6754 1.65625 8.7254V14.4754C1.65625 16.6004 3.38125 18.3337 5.50625 18.3337H14.4896C16.6146 18.3337 18.3396 16.6087 18.3396 14.4837V8.83373C18.3396 7.70873 17.6146 6.3254 16.6979 5.68373ZM10.6229 15.0004C10.6229 15.3421 10.3396 15.6254 9.99792 15.6254C9.65625 15.6254 9.37292 15.3421 9.37292 15.0004V12.5004C9.37292 12.1587 9.65625 11.8754 9.99792 11.8754C10.3396 11.8754 10.6229 12.1587 10.6229 12.5004V15.0004Z" fill="#007BFF"/>
</svg>
