<svg width="16" height="16" viewBox="0 0 16 16" fill="none" xmlns="http://www.w3.org/2000/svg">
<path d="M7.99935 12.3333C10.3926 12.3333 12.3327 10.3932 12.3327 7.99996C12.3327 5.60673 10.3926 3.66663 7.99935 3.66663C5.60612 3.66663 3.66602 5.60673 3.66602 7.99996C3.66602 10.3932 5.60612 12.3333 7.99935 12.3333Z" stroke="#525252" stroke-width="1.16667" stroke-linecap="round" stroke-linejoin="round"/>
<path d="M12.7606 12.76L12.674 12.6734M12.674 3.32671L12.7606 3.24004L12.674 3.32671ZM3.24065 12.76L3.32732 12.6734L3.24065 12.76ZM8.00065 1.38671V1.33337V1.38671ZM8.00065 14.6667V14.6134V14.6667ZM1.38732 8.00004H1.33398H1.38732ZM14.6673 8.00004H14.614H14.6673ZM3.32732 3.32671L3.24065 3.24004L3.32732 3.32671Z" stroke="#525252" stroke-width="1.55556" stroke-linecap="round" stroke-linejoin="round"/>
</svg>
