<svg width="250" height="79" viewBox="0 0 250 79" fill="none" xmlns="http://www.w3.org/2000/svg">
<g filter="url(#filter0_d_2009_3663)">
<rect x="18" y="6" width="213.906" height="43" rx="8" fill="white"/>
<rect x="18.5" y="6.5" width="212.906" height="42" rx="7.5" stroke="#EBEDEF"/>
<rect x="28.9531" y="16" width="31" height="23" rx="4" fill="#FFE2DB"/>
<path d="M39.9826 22.248V28.704H41.3626C41.6106 28.704 41.8106 28.636 41.9626 28.5C42.1146 28.364 42.1906 28.18 42.1906 27.948V22.248H43.4266V27.984C43.4266 28.616 43.2386 29.112 42.8626 29.472C42.4946 29.824 41.9946 30 41.3626 30H38.7466V22.248H39.9826ZM47.7654 28.704C47.8054 28.704 47.8334 28.748 47.8494 28.836C47.8734 28.924 47.8854 29.104 47.8854 29.376C47.8854 29.632 47.8734 29.8 47.8494 29.88C47.8334 29.96 47.8054 30 47.7654 30H47.4054C46.7654 30 46.2814 29.812 45.9534 29.436C45.6254 29.06 45.4614 28.528 45.4614 27.84V22.248H46.6974V27.756C46.6974 28.084 46.7574 28.324 46.8774 28.476C47.0054 28.628 47.2054 28.704 47.4774 28.704H47.7654ZM51.0695 27.984C51.0695 28.616 50.8815 29.112 50.5055 29.472C50.1295 29.824 49.6255 30 48.9935 30H47.7695C47.6895 30 47.6495 29.792 47.6495 29.376C47.6495 28.928 47.6895 28.704 47.7695 28.704H48.9935C49.2415 28.704 49.4415 28.64 49.5935 28.512C49.7455 28.376 49.8215 28.188 49.8215 27.948V26.016H51.0695V27.984ZM48.0095 32.58V31.404H49.4495V32.58H48.0095Z" fill="#FF5F37"/>
<line x1="76.4531" y1="17.5" x2="76.4531" y2="37.5" stroke="#EBEDEF"/>
<rect x="91.9531" y="16" width="54" height="23" rx="4" fill="#FFEFD6"/>
<path d="M103.623 26.748C104.447 25.564 105.331 24.972 106.275 24.972C106.715 24.972 107.111 25.08 107.463 25.296C107.815 25.504 108.087 25.8 108.279 26.184C108.479 26.56 108.579 26.992 108.579 27.48C108.579 27.888 108.507 28.236 108.363 28.524C108.467 28.596 108.591 28.644 108.735 28.668C108.879 28.692 109.067 28.704 109.299 28.704H109.587C109.667 28.704 109.707 28.928 109.707 29.376C109.707 29.792 109.667 30 109.587 30H109.299C108.907 30 108.587 29.964 108.339 29.892C108.091 29.812 107.871 29.672 107.679 29.472C107.223 29.824 106.659 30 105.987 30H101.535L101.415 28.704H102.375V22.248H103.623V26.748ZM105.987 28.704C106.411 28.704 106.739 28.596 106.971 28.38C107.211 28.164 107.331 27.864 107.331 27.48C107.331 27.104 107.223 26.8 107.007 26.568C106.791 26.336 106.511 26.22 106.167 26.22C105.775 26.22 105.371 26.42 104.955 26.82C104.539 27.22 104.063 27.848 103.527 28.704H105.987ZM110.53 28.704C110.858 28.704 111.106 28.632 111.274 28.488C111.442 28.336 111.526 28.124 111.526 27.852V26.016H112.774V27.852C112.774 28.42 113.098 28.704 113.746 28.704C114.074 28.704 114.322 28.632 114.49 28.488C114.658 28.336 114.742 28.124 114.742 27.852V26.016H115.99V27.852C115.99 28.124 116.066 28.336 116.218 28.488C116.37 28.632 116.598 28.704 116.902 28.704C117.214 28.704 117.446 28.632 117.598 28.488C117.758 28.336 117.838 28.124 117.838 27.852V26.016H119.074V27.84C119.074 28.52 118.882 29.052 118.498 29.436C118.114 29.812 117.582 30 116.902 30C116.086 30 115.558 29.768 115.318 29.304C115.006 29.768 114.482 30 113.746 30C113.298 30 112.942 29.944 112.678 29.832C112.414 29.712 112.222 29.536 112.102 29.304C111.79 29.768 111.266 30 110.53 30H109.582C109.502 30 109.462 29.792 109.462 29.376C109.462 28.928 109.502 28.704 109.582 28.704H110.53ZM126.577 28.704C126.657 28.704 126.697 28.928 126.697 29.376C126.697 29.792 126.657 30 126.577 30H125.509C125.429 30.912 125.113 31.624 124.561 32.136C124.017 32.648 123.301 32.904 122.413 32.904H120.865L120.757 31.608H122.449C123.017 31.608 123.465 31.464 123.793 31.176C124.121 30.888 124.289 30.496 124.297 30H123.265C122.417 30 121.809 29.828 121.441 29.484C121.073 29.132 120.889 28.584 120.889 27.84C120.889 27.328 120.985 26.876 121.177 26.484C121.377 26.092 121.653 25.788 122.005 25.572C122.365 25.348 122.777 25.236 123.241 25.236C123.953 25.236 124.513 25.476 124.921 25.956C125.329 26.428 125.533 27.076 125.533 27.9V28.704H126.577ZM122.137 27.78C122.137 28.116 122.225 28.356 122.401 28.5C122.577 28.636 122.885 28.704 123.325 28.704H124.297V27.924C124.297 27.452 124.201 27.096 124.009 26.856C123.817 26.608 123.541 26.484 123.181 26.484C122.853 26.484 122.597 26.604 122.413 26.844C122.229 27.076 122.137 27.388 122.137 27.78ZM128.014 28.704C128.27 28.704 128.474 28.64 128.626 28.512C128.786 28.376 128.866 28.188 128.866 27.948V26.016H130.114V27.9C130.114 28.436 130.39 28.704 130.942 28.704H131.35C131.43 28.704 131.47 28.924 131.47 29.364C131.47 29.788 131.43 30 131.35 30H130.894C130.182 30 129.71 29.784 129.478 29.352C129.198 29.784 128.71 30 128.014 30H126.574C126.494 30 126.454 29.792 126.454 29.376C126.454 28.928 126.494 28.704 126.574 28.704H128.014ZM130.246 23.496V24.648H126.982V23.496H130.246ZM131.643 28.704C131.907 28.704 132.095 28.652 132.207 28.548C132.327 28.436 132.387 28.264 132.387 28.032V27.612C132.387 26.844 132.599 26.236 133.023 25.788C133.455 25.34 134.039 25.116 134.775 25.116C135.511 25.116 136.075 25.332 136.467 25.764C136.859 26.188 137.055 26.8 137.055 27.6C137.055 28.36 136.847 28.952 136.431 29.376C136.023 29.792 135.455 30 134.727 30C134.319 30 133.975 29.944 133.695 29.832C133.415 29.712 133.211 29.548 133.083 29.34C132.939 29.572 132.751 29.74 132.519 29.844C132.295 29.948 132.003 30 131.643 30H131.355C131.275 30 131.235 29.792 131.235 29.376C131.235 28.928 131.275 28.704 131.355 28.704H131.643ZM135.819 27.6C135.819 27.184 135.727 26.876 135.543 26.676C135.367 26.468 135.095 26.364 134.727 26.364C134.359 26.364 134.083 26.468 133.899 26.676C133.723 26.876 133.635 27.188 133.635 27.612C133.635 27.964 133.727 28.236 133.911 28.428C134.095 28.612 134.367 28.704 134.727 28.704C135.095 28.704 135.367 28.616 135.543 28.44C135.727 28.256 135.819 27.976 135.819 27.6Z" fill="#FFAF37"/>
<line x1="162.453" y1="17.5" x2="162.453" y2="37.5" stroke="#EBEDEF"/>
<rect x="177.953" y="16" width="43" height="23" rx="4" fill="#C3FFF1"/>
<path d="M194.705 27.792C194.705 27.984 194.761 28.136 194.873 28.248C194.993 28.352 195.161 28.404 195.377 28.404H195.701C195.781 28.404 195.821 28.68 195.821 29.232C195.821 29.744 195.781 30 195.701 30H195.425C195.097 30 194.857 29.944 194.705 29.832C194.681 30.424 194.525 30.948 194.237 31.404C193.949 31.868 193.553 32.228 193.049 32.484C192.553 32.74 191.981 32.868 191.333 32.868H190.853C189.813 32.868 189.009 32.568 188.441 31.968C187.881 31.376 187.601 30.544 187.601 29.472V27.072H189.125V29.436C189.125 30.044 189.265 30.5 189.545 30.804C189.825 31.116 190.261 31.272 190.853 31.272H191.333C191.909 31.272 192.361 31.12 192.689 30.816C193.017 30.512 193.181 30.092 193.181 29.556V25.872H194.705V27.792ZM190.073 25.692V24.324H191.705V25.692H190.073ZM197.899 28.404C198.099 28.404 198.259 28.352 198.379 28.248C198.499 28.136 198.559 27.984 198.559 27.792V25.872H200.095V27.744C200.095 28.184 200.319 28.404 200.767 28.404H201.211C201.291 28.404 201.331 28.672 201.331 29.208C201.331 29.736 201.291 30 201.211 30H200.695C200.007 30 199.551 29.808 199.327 29.424C199.183 29.624 198.991 29.772 198.751 29.868C198.519 29.956 198.235 30 197.899 30H195.703C195.623 30 195.583 29.744 195.583 29.232C195.583 28.68 195.623 28.404 195.703 28.404H197.899ZM198.835 31.248V32.616H195.451V31.248H198.835ZM204.583 27.864C204.583 28.528 204.383 29.052 203.983 29.436C203.591 29.812 203.059 30 202.387 30H201.211C201.131 30 201.091 29.744 201.091 29.232C201.091 28.68 201.131 28.404 201.211 28.404H202.387C202.587 28.404 202.747 28.352 202.867 28.248C202.995 28.136 203.059 27.984 203.059 27.792V25.872H204.583V27.864ZM203.863 31.248V32.616H200.479V31.248H203.863ZM208.779 28.404C208.819 28.404 208.847 28.456 208.863 28.56C208.887 28.664 208.899 28.888 208.899 29.232C208.899 29.552 208.887 29.76 208.863 29.856C208.847 29.952 208.819 30 208.779 30H208.347C207.675 30 207.163 29.808 206.811 29.424C206.467 29.032 206.295 28.476 206.295 27.756V22.272H207.831V27.648C207.831 27.904 207.879 28.096 207.975 28.224C208.079 28.344 208.239 28.404 208.455 28.404H208.779ZM212.153 27.864C212.153 28.528 211.953 29.052 211.553 29.436C211.161 29.812 210.629 30 209.957 30H208.781C208.701 30 208.661 29.744 208.661 29.232C208.661 28.68 208.701 28.404 208.781 28.404H209.957C210.157 28.404 210.317 28.352 210.437 28.248C210.565 28.136 210.629 27.984 210.629 27.792V25.872H212.153V27.864ZM211.433 31.248V32.616H208.049V31.248H211.433ZM209.057 34.5V33.192H210.425V34.5H209.057Z" fill="#11A483"/>
</g>
<defs>
<filter id="filter0_d_2009_3663" x="0" y="0" width="249.906" height="79" filterUnits="userSpaceOnUse" color-interpolation-filters="sRGB">
<feFlood flood-opacity="0" result="BackgroundImageFix"/>
<feColorMatrix in="SourceAlpha" type="matrix" values="0 0 0 0 0 0 0 0 0 0 0 0 0 0 0 0 0 0 127 0" result="hardAlpha"/>
<feMorphology radius="6" operator="erode" in="SourceAlpha" result="effect1_dropShadow_2009_3663"/>
<feOffset dy="12"/>
<feGaussianBlur stdDeviation="12"/>
<feColorMatrix type="matrix" values="0 0 0 0 0.0784314 0 0 0 0 0.0784314 0 0 0 0 0.0980392 0 0 0 0.06 0"/>
<feBlend mode="normal" in2="BackgroundImageFix" result="effect1_dropShadow_2009_3663"/>
<feBlend mode="normal" in="SourceGraphic" in2="effect1_dropShadow_2009_3663" result="shape"/>
</filter>
</defs>
</svg>
