<svg width="74" height="30" viewBox="0 0 74 30" fill="none" xmlns="http://www.w3.org/2000/svg">
<rect x="0.5" y="0.5" width="73" height="29" rx="3.5" stroke="#E9E9E9"/>
<path d="M12.3546 16.488C12.4012 16.488 12.4339 16.5393 12.4526 16.642C12.4806 16.7447 12.4946 16.9547 12.4946 17.272C12.4946 17.5707 12.4806 17.7667 12.4526 17.86C12.4339 17.9533 12.4012 18 12.3546 18H11.9346C11.1879 18 10.6232 17.7807 10.2406 17.342C9.8579 16.9033 9.66656 16.2827 9.66656 15.48V8.956H11.1086V15.382C11.1086 15.7647 11.1786 16.0447 11.3186 16.222C11.4679 16.3993 11.7012 16.488 12.0186 16.488H12.3546ZM14.1934 16.488C13.9787 16.292 13.806 16.0447 13.6754 15.746C13.5447 15.4473 13.4794 15.144 13.4794 14.836C13.4794 14.3133 13.6007 13.8467 13.8434 13.436C14.086 13.016 14.4174 12.6893 14.8374 12.456C15.2574 12.2133 15.7287 12.092 16.2514 12.092C16.746 12.092 17.1894 12.2087 17.5814 12.442C17.9827 12.6753 18.2954 12.9927 18.5194 13.394C18.7527 13.786 18.8694 14.2247 18.8694 14.71C18.8694 15.0647 18.7854 15.4007 18.6174 15.718C18.4587 16.0353 18.2394 16.292 17.9594 16.488H19.6674C20.0127 16.488 20.274 16.4273 20.4514 16.306C20.6287 16.1847 20.7174 16.012 20.7174 15.788C20.7174 15.62 20.6754 15.4613 20.5914 15.312C20.5167 15.1533 20.3627 14.9573 20.1294 14.724L17.3574 11.798L18.3934 10.72L21.2354 13.772C21.562 14.1173 21.8 14.458 21.9494 14.794C22.0987 15.13 22.1734 15.4753 22.1734 15.83C22.1734 16.4833 21.9494 17.0107 21.5014 17.412C21.0534 17.804 20.442 18 19.6674 18H18.0994C17.4927 18 17.054 17.986 16.7834 17.958C16.522 17.9207 16.3074 17.8507 16.1394 17.748C15.9714 17.8413 15.7334 17.9067 15.4254 17.944C15.1267 17.9813 14.6974 18 14.1374 18H12.3594C12.266 18 12.2194 17.7573 12.2194 17.272C12.2194 16.7493 12.266 16.488 12.3594 16.488H14.1934ZM16.1114 16.474C16.55 16.2873 16.886 16.054 17.1194 15.774C17.3527 15.494 17.4694 15.1813 17.4694 14.836C17.4694 14.4533 17.3527 14.1453 17.1194 13.912C16.886 13.6693 16.5734 13.548 16.1814 13.548C15.7894 13.548 15.472 13.6693 15.2294 13.912C14.996 14.1453 14.8794 14.4533 14.8794 14.836C14.8794 15.5453 15.29 16.0913 16.1114 16.474ZM33.7848 6.52L34.0648 7.43L29.1648 9.446V8.452L33.7848 6.52ZM26.7988 18C25.9682 18 25.3382 17.7853 24.9088 17.356C24.4795 16.9173 24.2648 16.3013 24.2648 15.508V13.352H25.7068V15.312C25.7068 15.704 25.8002 15.998 25.9868 16.194C26.1735 16.39 26.4675 16.488 26.8688 16.488H31.7408C32.0955 16.488 32.3708 16.4273 32.5668 16.306C32.7628 16.1753 32.8608 16.0027 32.8608 15.788C32.8608 15.6107 32.8188 15.4473 32.7348 15.298C32.6602 15.1487 32.5248 14.976 32.3288 14.78L29.1648 11.658V10.44L34.3448 8.41L34.7788 9.796L30.9008 11.28L33.4208 13.814C34.2702 14.6633 34.8955 15.27 35.2968 15.634C35.7075 15.9887 36.0342 16.222 36.2768 16.334C36.5195 16.4367 36.7995 16.488 37.1168 16.488C37.2102 16.488 37.2568 16.7493 37.2568 17.272C37.2568 17.7573 37.2102 18 37.1168 18C36.6782 18 36.3188 17.9673 36.0388 17.902C35.7682 17.8273 35.4882 17.6873 35.1988 17.482C34.9188 17.2767 34.5642 16.9547 34.1348 16.516C34.0322 16.9733 33.7662 17.3373 33.3368 17.608C32.9168 17.8693 32.3848 18 31.7408 18H26.7988ZM40.9691 15.648C40.9691 16.3853 40.7498 16.964 40.3111 17.384C39.8725 17.7947 39.2845 18 38.5471 18H37.1191C37.0258 18 36.9791 17.7573 36.9791 17.272C36.9791 16.7493 37.0258 16.488 37.1191 16.488H38.5471C38.8365 16.488 39.0698 16.4133 39.2471 16.264C39.4245 16.1053 39.5131 15.886 39.5131 15.606V13.352H40.9691V15.648ZM41.3471 10.412V11.756H37.5391V10.412H41.3471Z" fill="#AFAEB2"/>
<path d="M49.5166 7.58331H59.0499C59.6166 7.58331 60.325 7.97498 60.625 8.45831L64.1083 14.025C64.4416 14.5666 64.4083 15.4166 64.025 15.925L59.7083 21.675C59.4 22.0833 58.7333 22.4166 58.225 22.4166H49.5166C48.0583 22.4166 47.175 20.8166 47.9417 19.575L50.2499 15.8833C50.5583 15.3916 50.5583 14.5916 50.2499 14.1L47.9417 10.4083C47.175 9.18331 48.0666 7.58331 49.5166 7.58331Z" stroke="#AFAEB2" stroke-width="1.25" stroke-miterlimit="10" stroke-linecap="round" stroke-linejoin="round"/>
</svg>
